<svg xmlns:dc="http://purl.org/dc/elements/1.1/" xmlns:cc="http://creativecommons.org/ns#" xmlns:rdf="http://www.w3.org/1999/02/22-rdf-syntax-ns#" xmlns:svg="http://www.w3.org/2000/svg" xmlns="http://www.w3.org/2000/svg" xmlns:xlink="http://www.w3.org/1999/xlink" id="svg211515" viewBox="0 0 1024 768" height="768px" width="1024px" version="1.1">
	<metadata id="metadata211521">
		<rdf:rdf>
			<cc:work rdf:about="">
				<dc:format>image/svg+xml</dc:format>
				<dc:type rdf:resource="http://purl.org/dc/dcmitype/StillImage"></dc:type>
			</cc:work>
		</rdf:rdf>
	</metadata>
	<defs id="defs211519"></defs>
	<linearGradient spreadMethod="pad" y2="30%" x2="-10%" y1="120%" x1="30%" id="3d_gradient2-logo-6a09e3fc-7d78-49d0-9c5c-102314142026">
		<stop id="stop211496" stop-opacity="1" stop-color="#ffffff" offset="0%"></stop>
		<stop id="stop211498" stop-opacity="1" stop-color="#000000" offset="100%"></stop>
	</linearGradient>
	<linearGradient gradientTransform="rotate(-30)" spreadMethod="pad" y2="30%" x2="-10%" y1="120%" x1="30%" id="3d_gradient3-logo-6a09e3fc-7d78-49d0-9c5c-102314142026">
		<stop id="stop211501" stop-opacity="1" stop-color="#ffffff" offset="0%"></stop>
		<stop id="stop211503" stop-opacity="1" stop-color="#cccccc" offset="50%"></stop>
		<stop id="stop211505" stop-opacity="1" stop-color="#000000" offset="100%"></stop>
	</linearGradient>
	<g id="logo-group">

		<g id="logo-center" transform="translate(-1.1368683772161603e-13 0)">
			<image xlink:href="" id="icon_container" style="display: none;" x="-160" y="-12"></image>
			<g id="slogan" style="font-style:normal;font-weight:400;font-size:32px;line-height:1;font-family:Montserrat;font-variant-ligatures:none;text-align:center;text-anchor:middle" transform="translate(-21.9 21)"></g>
			<g id="title" style="font-style:normal;font-weight:800;font-size:72px;line-height:1;font-family:'Montserrat ExtraBold Alt1';font-variant-ligatures:none;text-align:center;text-anchor:middle" transform="translate(-21.9 0)">
				<path id="path211524" style="font-style:normal;font-weight:800;font-size:72px;line-height:1;font-family:'Montserrat ExtraBold Alt1';font-variant-ligatures:none;text-align:center;text-anchor:middle" d="m 418.88769,-50.4 h -14.04 L 382.59969,0 h 14.544 l 3.96,-9.792 4.176,-10.512 6.48,-16.128 6.48,16.128 4.176,10.512 3.96,9.792 h 14.832 z" stroke-width="0" stroke-linejoin="miter" stroke-miterlimit="2" fill="#ffffff" stroke="#ffffff" transform="translate(0 313.588) translate(340.39378250000004 39.416000000000004) scale(1.23) translate(-382.59969 50.4)"></path>
				<path id="path211526" style="font-style:normal;font-weight:800;font-size:72px;line-height:1;font-family:'Montserrat ExtraBold Alt1';font-variant-ligatures:none;text-align:center;text-anchor:middle" d="m 480.81894,-15.84 c 3.096,-1.512 5.544,-3.6 7.272,-6.336 1.728,-2.736 2.592,-5.904 2.592,-9.576 0,-3.744 -0.936,-7.056 -2.736,-9.864 -1.872,-2.808 -4.464,-4.968 -7.776,-6.48 -3.384,-1.512 -7.344,-2.304 -11.88,-2.304 h -23.04 v 11.232 h 22.176 c 2.88,0 5.112,0.648 6.624,1.944 1.44,1.296 2.232,3.168 2.232,5.472 0,2.376 -0.792,4.176 -2.232,5.472 -1.512,1.296 -3.744,1.872 -6.624,1.872 h -22.176 V 0 h 14.256 v -13.392 h 7.776 L 476.42694,0 h 15.264 z" stroke-width="0" stroke-linejoin="miter" stroke-miterlimit="2" fill="#ffffff" stroke="#ffffff" transform="translate(0 313.588) translate(425.5728200000001 39.416000000000004) scale(1.23) translate(-445.25094 50.4)"></path>
				<path id="path211528" style="font-style:normal;font-weight:800;font-size:72px;line-height:1;font-family:'Montserrat ExtraBold Alt1';font-variant-ligatures:none;text-align:center;text-anchor:middle" d="m 496.68256,-25.776 v 10.512 h 21.024 v -10.512 z" stroke-width="0" stroke-linejoin="miter" stroke-miterlimit="2" fill="#ffffff" stroke="#ffffff" transform="translate(0 313.588) translate(496.9517126000001 69.70352) scale(1.23) translate(-496.68256 25.776)"></path>
				<path id="path211530" style="font-style:normal;font-weight:800;font-size:72px;line-height:1;font-family:'Montserrat ExtraBold Alt1';font-variant-ligatures:none;text-align:center;text-anchor:middle" d="m 537.40756,-2.376 c 4.248,2.304 9.072,3.384 14.4,3.384 5.328,0 10.08,-1.08 14.328,-3.384 4.248,-2.232 7.56,-5.328 10.008,-9.36 2.448,-3.96 3.672,-8.424 3.672,-13.464 0,-4.968 -1.224,-9.432 -3.672,-13.464 -2.448,-3.96 -5.76,-7.056 -10.008,-9.36 -4.248,-2.232 -9,-3.384 -14.328,-3.384 -5.328,0 -10.152,1.152 -14.4,3.384 -4.248,2.304 -7.56,5.4 -10.008,9.36 -2.448,4.032 -3.6,8.496 -3.6,13.464 0,5.04 1.152,9.504 3.6,13.464 2.448,4.032 5.76,7.128 10.008,9.36 z m 21.312,-10.224 c -2.088,1.224 -4.392,1.8 -6.912,1.8 -2.592,0 -4.896,-0.576 -6.912,-1.8 -2.088,-1.152 -3.744,-2.88 -4.896,-5.04 -1.224,-2.16 -1.8,-4.68 -1.8,-7.56 0,-2.808 0.576,-5.328 1.8,-7.488 1.152,-2.16 2.808,-3.888 4.896,-5.112 2.016,-1.152 4.32,-1.8 6.912,-1.8 2.52,0 4.824,0.648 6.912,1.8 2.016,1.224 3.672,2.952 4.896,5.112 1.152,2.16 1.8,4.68 1.8,7.488 0,2.88 -0.648,5.4 -1.8,7.56 -1.224,2.16 -2.88,3.888 -4.896,5.04 z" stroke-width="0" stroke-linejoin="miter" stroke-miterlimit="2" fill="#9bbff3" stroke="#9bbff3" transform="translate(0 313.588) translate(538.4236226000002 38.17616) scale(1.23) translate(-523.79956 51.408)"></path>
				<path id="path211532" style="font-style:normal;font-weight:800;font-size:72px;line-height:1;font-family:'Montserrat ExtraBold Alt1';font-variant-ligatures:none;text-align:center;text-anchor:middle" d="m 587.28219,0 h 13.968 v -8.496 l -13.968,-17.784 z m 33.984,-50.4 v 9.144 l 13.968,16.848 V -50.4 Z m 0,26.856 -22.248,-26.856 h -11.736 v 6.696 l 13.968,16.848 22.248,26.856 h 11.736 v -5.832 l -13.968,-17.784 z" stroke-width="0" stroke-linejoin="miter" stroke-miterlimit="2" fill="#9bbff3" stroke="#9bbff3" transform="translate(0 313.588) translate(624.6252575000002 39.416000000000004) scale(1.23) translate(-587.28219 50.4)"></path>
			</g>

		</g>
	</g>
</svg>